<?xml version="1.0" encoding="utf-8"?>
<!-- Generator: Adobe Illustrator 21.0.0, SVG Export Plug-In . SVG Version: 6.00 Build 0)  -->
<svg version="1.1" id="图层_1" xmlns="http://www.w3.org/2000/svg" xmlns:xlink="http://www.w3.org/1999/xlink" x="0px" y="0px"
	 viewBox="0 0 595.3 841.9" style="enable-background:new 0 0 595.3 841.9;" xml:space="preserve">
<style type="text/css">
	.st0{fill:#FFFFFF;}
	.st1{fill:none;stroke:#B3B3B3;stroke-miterlimit:10;}
	.st2{fill:none;stroke:#666666;stroke-miterlimit:10;}
	.st3{fill:none;stroke:#CCCCCC;stroke-miterlimit:10;}
	.st4{fill:none;stroke:#808080;stroke-miterlimit:10;}
	.st5{fill:#CCCCCC;}
	.st6{font-family:'SimHei';}
	.st7{font-size:7.1693px;}
	.st8{font-size:5.8814px;}
	.st9{font-size:4.2346px;}
	.st10{fill:#E6E6E6;}
	.st11{font-size:4.2216px;}
	.st12{font-size:2.5979px;}
	.st13{fill:none;stroke:#999999;stroke-miterlimit:10;}
	.st14{fill:#009245;}
	.st15{fill:#F15A24;}
	.st16{fill:none;stroke:#29ABE2;stroke-miterlimit:10;}
	.st17{fill:none;stroke:#333333;stroke-miterlimit:10;}
	.st18{fill:none;stroke:#333333;stroke-width:2;stroke-miterlimit:10;}
	.st19{fill:none;stroke:#4D4D4D;stroke-width:2;stroke-miterlimit:10;}
	.st20{fill:#FF0000;}
	.st21{font-size:3.8969px;}
	.st22{font-size:4.5464px;}
	.st23{font-size:3.2474px;}
	.st24{font-size:2.5979px;glyph-orientation-vertical:0;writing-mode:tb;}
	.st25{font-size:3.8969px;glyph-orientation-vertical:0;writing-mode:tb;}
	.st26{font-size:5.8814px;glyph-orientation-vertical:0;writing-mode:tb;}
	.st27{font-size:2.8694px;}
	.st28{enable-background:new    ;}
	.st29{font-size:1.4781px;}
	.st30{font-size:1.4781px;glyph-orientation-vertical:0;writing-mode:tb;}
</style>
<path d="M544.1,281.9l1.2,0.2c0.4,0.1,0.8,0.1,1.2,0.3c0.3,0.1,0.5,0.2,0.7,0.4c0.2,0.1,0.4,0.3,0.6,0.4c0.4,0.2,0.7,0.5,1,0.7
	c0.3,0.2,0.6,0.3,0.8,0.4c0.5,0.2,0.9,0.4,1.4,0.6c0.5,0.2,0.9,0.4,1.4,0.6c0.7,0.3,1.5,0.6,2.2,0.9l2,0.8l2,0.8l1,0.4
	c0.3,0.1,0.6,0.3,0.9,0.4c0.2,0,0.4,0,0.6,0c0.3,0,0.6,0,0.8,0c0.4,0,0.8,0,1.2,0c0.3,0,0.5,0,0.7,0h0.8h1.2h0.2c0,0,0.1,0,0.1,0.1
	v0h-0.5c-0.5,0-0.9,0-1.4,0.1c-0.4,0-0.7,0-1,0c-0.6,0-1.1-0.1-1.7,0c-0.4,0-0.7,0-1.1,0l0.1,0.9l0.1,1.3c0,0.4,0,0.9,0.1,1.3
	c0,0.3,0,0.6,0,0.9c0,0.3,0,0.6,0.1,1c0,0.1,0,0.2-0.1,0.2l0,0.3v0c0.2,0.1,0.1,0.2,0.1,0.4l0,0.6c0,0.1,0,0.1-0.1,0.2
	c-0.3,0-0.6,0.1-0.9,0.2c-0.5,0.1-1,0.3-1.5,0.4c-0.4,0.1-0.8,0.1-1.2,0.3c-0.5,0.1-1,0.3-1.5,0.4c-0.4,0.1-0.8,0.2-1.2,0.3
	l-0.1-0.3l5.9-1.5v0l-1.1-0.5c-0.4-0.1-0.7-0.3-1.1-0.5c-0.4-0.1-0.7-0.3-1-0.5l0-0.1l3.3,1.4l-0.1-1.3c0-0.2,0-0.5,0-0.6l0-1l0-0.5
	c0-0.4,0-0.7-0.1-1c0-0.2,0-0.3-0.1-0.5c0-0.4,0-0.6-0.1-1c0-0.3,0-0.6-0.1-0.8c0,0-0.2-0.1-0.3-0.1h-0.8h-1.2h-0.6h-1.8h-1.3
	c-0.5,0-1.1,0-1.6,0c-0.5,0-1.2,0-1.8,0h-2h-2h-1.5l0,0.4l1,0.5c0.4,0.1,0.6,0.3,1,0.4c0.4,0.1,0.6,0.2,0.8,0.4
	c0.4,0.2,0.9,0.4,1.3,0.6c0.5,0.2,0.8,0.3,1.2,0.5c0.3,0.1,0.6,0.3,0.9,0.4c0.7,0.3,1.3,0.5,2,0.8c0.5,0.2,1,0.4,1.6,0.6
	c0.6,0.3,1.4,0.5,2,0.8c0.1,0,0.2,0.1,0.2,0.1l0,0.1l-12.1-5l-0.3,0.4l0,0c0.4,0.4,0.7,0.7,1,1.1c0.3,0.3,0.5,0.6,0.8,0.8
	c0.2,0.2,0.5,0.5,0.7,0.7l1.4,1.4c0.4,0.4,0.7,0.7,1,1l1.2,1.2c0.4,0.4,0.7,0.7,1.1,1.1c0.2,0.1,0.3,0.3,0.5,0.5h0.1
	c0.3,0,0.6-0.1,0.9-0.2c0.2,0,0.4-0.1,0.5-0.1c0.2,0,0.2,0,0.2,0.2c0,0,0,0,0.1,0.1c0,0-0.1,0-0.2,0c-0.4,0.1-0.7,0.2-1.1,0.3
	c-0.5,0.1-1.1,0.2-1.6,0.3c-0.4,0.1-0.8,0.2-1.2,0.3c-0.2,0-0.4,0.1-0.6,0.1c-0.4,0.1-0.8,0.2-1.3,0.2c-0.4,0.1-0.9,0.2-1.3,0.3
	c-0.2,0-0.4,0.1-0.6,0.1c-0.4,0.1-0.7,0.1-1.1,0.2c-0.3,0-0.6,0.1-0.9,0.2c-0.2,0-0.4,0.1-0.6,0.1v4.2c0,1.3,0,2.6,0,3.9h-0.1
	c0,0,0-0.1,0-0.1v-2v-1.8v-1.2v-1.5c0-0.5,0-0.9,0-1.3c0-0.2-0.1-0.1-0.1-0.1c-0.4,0-0.7,0.1-1.1,0.2c-0.5,0.1-0.9,0.2-1.3,0.3
	c-0.5,0.1-0.8,0.1-1.2,0.2c-0.3,0-0.6,0.1-0.9,0.2c-0.1,0-0.2,0-0.4,0c-0.4-0.1-0.8-0.2-1.3-0.4c-0.3-0.1-0.6-0.2-1-0.3
	c-0.3-0.1-0.5-0.1-0.8-0.2c-0.3,0-0.4-0.1-0.6-0.2c-0.2,0-0.5-0.1-0.8-0.2c-0.3,0-0.5-0.1-0.7-0.2c-0.1-0.1-0.3-0.2-0.4-0.3
	c-0.3-0.3-0.6-0.5-0.9-0.7c-0.6-0.5-1.2-1-1.9-1.5c-0.3-0.2-0.5-0.4-0.8-0.6c-0.3-0.2-0.6-0.5-0.9-0.7c0,0-0.1-0.1-0.2-0.1
	c-0.2-0.1-0.1-0.3-0.1-0.5c0-0.2,0-0.4,0-0.5l0.2-1.5l0-0.5l0.1-1.2c0-0.3,0-0.6,0.1-0.9c0-0.3,0.1-0.6,0.1-1v-0.4
	c0,0-0.1-0.1-0.2-0.1h-1.7H526c-0.4,0-0.7,0-1.1,0h-0.6c0,0-0.1,0-0.1,0v0c0.1,0,0.2,0,0.4,0c0.5,0,1,0,1.5,0h1.1h1.1h1
	c0,0,0.1,0,0.1,0c0.4-0.3,0.7-0.6,1.1-0.9c0.4-0.3,0.6-0.6,0.9-0.9c0.4-0.4,0.8-0.7,1.2-1.1c0.3-0.3,0.6-0.5,0.9-0.7
	c0.2-0.2,0.4-0.4,0.6-0.5c0.1,0,0.2-0.1,0.4-0.1c0.4,0,0.9-0.1,1.3-0.2c0.6-0.1,1.3-0.2,2-0.4c0.4-0.1,0.8-0.1,1.2-0.2
	c0.2,0,0.3-0.1,0.4-0.2c0.6-0.4,1.2-0.7,1.8-1.2c0.3-0.2,0.6-0.3,1-0.3c0.4-0.1,0.7-0.1,1.1-0.2c0.2,0,0.5-0.1,0.7-0.1
	c0.1,0,0.1,0,0.1-0.1v-1.7c0-0.6,0-1,0-1.5c0-0.5,0-1,0-1.6c0-0.5,0-1,0-1.6v-1.4v-1.3v-1.1v-1.4c0,0,0-0.1,0.1-0.1c0,0,0,0.1,0,0.1
	v1c0,0.4,0,0.8,0,1.2v0.6v1v1c0,0.6,0,1.3,0,2c0,0.6,0,1.2,0,1.9c0,0.4,0,0.7,0,1.1L544.1,281.9
	C544.1,281.8,544.1,281.8,544.1,281.9 M539.7,284.7c0,0,0.1,0,0.2,0.1c0.2,0.2,0.4,0.4,0.6,0.6l1.8,1.8c0.3,0.3,0.6,0.6,0.8,0.8
	l0.4-0.2l-0.4-0.8l-0.5-1.3c-0.2-0.4-0.4-0.9-0.6-1.4c-0.2-0.5-0.4-1-0.6-1.5c0,0,0,0-0.1,0c0,0-0.1,0-0.2,0.1l-1.6,1.1
	c-0.2,0.1-0.2,0.1,0,0.4C539.6,284.5,539.7,284.6,539.7,284.7c-0.2-0.1-0.3-0.2-0.4-0.4c-0.1-0.2-0.3-0.1-0.4-0.1c0,0-0.1,0-0.1,0
	c-0.2,0-0.4,0-0.6,0.1c-0.6,0.1-1.2,0.2-1.8,0.3c-0.5,0.1-1,0.2-1.6,0.3c-0.1,0-0.2,0-0.3,0c0.3,0.1,0.6,0.3,0.9,0.4l1.8,0.7
	l1.4,0.6c0.5,0.2,1,0.4,1.6,0.6c0.8,0.4,1.6,0.6,2.4,1c0.3,0.1,0.3,0.1,0.5-0.1c0,0,0-0.1,0-0.1c-0.2-0.2-0.4-0.4-0.6-0.6l-1.4-1.4
	c-0.3-0.3-0.6-0.6-0.9-0.8C540,285.1,539.9,284.9,539.7,284.7 M543.1,289.9c-0.1-0.1-0.1-0.2-0.2-0.3c0,0-0.1,0-0.1,0
	c-0.4,0.1-0.7,0.3-1.1,0.4c-0.5,0.2-0.8,0.4-1.3,0.6c-0.4,0.2-0.8,0.4-1.2,0.5l-1.8,0.7l-1.9,0.7l-1.9,0.7c-0.4,0.2-0.8,0.3-1.2,0.5
	c-0.4,0.2-0.8,0.4-1.2,0.5c-0.6,0.3-1.2,0.5-1.9,0.8c-0.1,0-0.2,0.1-0.4,0.2l4.8,3.9L543.1,289.9z M542.8,289.5c0-0.1,0-0.2,0-0.3
	c0-0.1,0-0.1-0.1-0.1c-0.6,0-1.2,0-1.8,0c-1.1,0-2.3,0-3.4,0H536h-1.3h-1.3h-0.7h-1.3h-1.7c0,0.1,0,0.3,0,0.5c0,0.3-0.1,0.6-0.1,0.8
	c0,0.3,0,0.6-0.1,1c0,0.3-0.1,0.6-0.1,0.9c0,0.3,0,0.5-0.1,0.8c-0.1,0.3-0.1,0.4-0.1,0.7c0,0.4-0.1,0.8-0.1,1.2v0.2L542.8,289.5z
	 M533.9,299.1c0.4,0.1,0.7,0.2,1.1,0.3c0.3,0.1,0.6,0.1,0.9,0.2c0.3,0.1,0.6,0.2,0.9,0.3c0.3,0.1,0.6,0.1,1,0.2
	c0.4,0.1,0.8,0.2,1.2,0.4c0.1,0,0.2,0,0.2-0.1c0.1-0.3,0.3-0.6,0.4-0.9c0.1-0.4,0.3-0.7,0.4-1.1c0.2-0.5,0.4-1,0.6-1.5
	c0.1-0.4,0.3-0.7,0.4-1.1c0.2-0.4,0.3-0.6,0.4-1c0.1-0.2,0.1-0.4,0.2-0.6l0.3-0.6l0.3-0.6l0.4-0.8l0.4-1l0.4-0.8
	c-0.1,0-0.2-0.1-0.2-0.2c-0.1-0.1-0.1-0.1-0.2,0c-0.2,0.2-0.5,0.5-0.6,0.6l-0.8,0.7c-0.3,0.3-0.5,0.5-0.8,0.8
	c-0.3,0.3-0.6,0.5-0.8,0.8l-0.6,0.6c-0.3,0.3-0.6,0.6-0.9,0.9c-0.4,0.4-0.8,0.8-1.2,1.2c-0.2,0.2-0.4,0.4-0.6,0.5
	c-0.4,0.4-0.7,0.7-1,1l-1.4,1.3C534.3,298.6,534.1,298.9,533.9,299.1 M529.8,288.9c0,0,0.1,0,0.1,0c0.6,0,1.2,0,1.9,0h2h2h1.1h1.8h1
	h1.6h1.2c0.2,0,0.2-0.1,0.1-0.2v-0.2c-0.3-0.1-0.6-0.3-0.9-0.4c-0.4-0.2-0.9-0.4-1.4-0.6c-0.6-0.3-1.3-0.5-1.9-0.8
	c-0.4-0.2-0.8-0.4-1.2-0.5c-0.4-0.2-0.7-0.4-1.1-0.5c-0.6-0.2-1.1-0.4-1.7-0.7c-0.4-0.1-0.3-0.1-0.6,0.1c-0.4,0.4-0.8,0.7-1.3,1.1
	l-1.6,1.4l-0.7,0.6C530.3,288.5,530,288.7,529.8,288.9 M545.3,288.6c0,0.1,0,0.2,0.1,0.3c0,0,0.1,0.1,0.1,0.1h1.2c0.5,0,0.9,0,1.4,0
	h1.3c0.6,0,1.3,0,2,0h1.6h1.5h1.5h1.9h1h0.9c0,0-0.1-0.1-0.1-0.1c-0.2-0.1-0.4-0.1-0.5-0.2c-0.4-0.2-0.8-0.4-1.2-0.5
	c-0.4-0.1-0.6-0.3-1-0.4c-0.4-0.1-0.6-0.3-0.9-0.4c-0.5-0.2-1-0.4-1.5-0.6c-0.8-0.3-1.5-0.6-2.3-1c-0.1,0-0.3,0-0.4,0
	c-0.7,0.3-1.4,0.6-2.1,0.9l-1.6,0.6l-1.7,0.7C546,288.2,545.7,288.4,545.3,288.6 M552.8,297.8l-7.9-7.9l-0.2,0.4l3.5,8.4
	L552.8,297.8z M543.6,290.2l-4.3,10.2c0.1,0,0.2,0,0.4,0c0.4-0.1,0.7-0.2,1.1-0.2c0.6-0.1,1.2-0.3,1.9-0.4c0.4,0,0.6-0.1,1-0.2
	c0.1,0,0.2,0,0.3-0.1c0,0,0-0.1,0-0.2v-0.2v-1.3c0-0.3,0-0.6,0-1c0-0.3,0-0.6,0-1v-1.6v-1.6v-2c0-0.1,0-0.3,0-0.3
	C543.9,290.3,543.7,290.3,543.6,290.2C543.7,290.2,543.6,290.2,543.6,290.2 M544.1,299.5c0.4-0.1,0.7-0.1,1.1-0.2
	c0.4-0.1,0.7-0.2,1.1-0.2c0.3,0,0.6-0.1,0.9-0.1c0.2,0,0.4-0.1,0.6-0.1c0.3,0,0.3,0,0.2-0.3c-0.3-0.6-0.6-1.4-0.8-2
	c-0.1-0.3-0.2-0.5-0.4-0.8l-0.6-1.5l-0.7-1.8l-0.7-1.7l-0.3-0.6l-0.4,0.1L544.1,299.5z M548.9,284.2l-1.3,1.3
	c-0.4,0.4-0.8,0.8-1.3,1.2c-0.4,0.4-0.7,0.7-1,1c-0.3,0.3-0.3,0.3-0.1,0.5c0,0,0.1,0,0.1,0c0.4-0.2,0.8-0.4,1.2-0.5
	c0.4-0.2,0.8-0.4,1.3-0.5l2-0.8l2.1-0.9L548.9,284.2z M546.6,282.7l-2.5-0.5v5.4l0.4,0.1L546.6,282.7z M548.8,284.1l-0.2-0.1
	l-1.1-0.8c-0.2-0.1-0.4-0.3-0.5-0.4c-0.2-0.1-0.2-0.1-0.4,0.1c0,0.1-0.1,0.2-0.1,0.3c-0.2,0.5-0.5,1-0.7,1.6
	c-0.2,0.5-0.4,0.9-0.6,1.4c-0.2,0.5-0.4,0.8-0.5,1.2c-0.1,0.1-0.1,0.3,0.1,0.4c0.1,0,0.2,0.1,0.3,0c0.3-0.3,0.5-0.5,0.8-0.8
	c0.4-0.4,0.9-0.9,1.4-1.3c0.4-0.4,0.9-0.8,1.3-1.2L548.8,284.1z M541.5,282.7l2.1,5c0,0,0.1,0,0.2,0c0.3,0,0.3,0,0.2-0.3v0v-2.1
	v-2.8v-0.2c-0.4,0.1-0.8,0.2-1.2,0.2C542.3,282.5,541.9,282.6,541.5,282.7 M543.7,288.8c0,0,0.1,0,0.2,0h0.2c0.4,0,0.7,0,1,0
	c0,0,0.1,0,0-0.1c0-0.1,0-0.2-0.1-0.3c-0.1-0.4-0.5-0.7-0.9-0.7c-0.6-0.1-1.1,0.2-1.3,0.7c0,0.1,0,0.3-0.1,0.4
	C543.2,289,543.5,288.9,543.7,288.8 M543.7,289.1h-0.9c0,0.3,0.2,0.6,0.4,0.8c0.3,0.2,0.6,0.4,0.9,0.3c0.4,0,0.9-0.3,1-1.1H544
	c0,0.1,0.3,0,0.2,0.3l-0.1-0.1c0,0.1-0.1,0.2-0.1,0.2c-0.1,0-0.2,0-0.3-0.1C543.7,289.3,543.7,289.1,543.7,289.1"/>
<path d="M568.4,287.3c0.2,0.4,0.4,0.7,0.6,1.1c0.2,0.4,0.4,0.8,0.6,1.2c0.2,0.4,0.4,0.8,0.6,1.2v-0.4v-1v-1.6v-0.3
	c0,0,0-0.1,0.1-0.1c0,0,0,0.1,0.1,0.1v0.1v2.5c0,0.4,0,0.6,0,1c0,0,0,0.1,0,0.1c0,0-0.1,0-0.1,0c-0.1-0.2-0.3-0.5-0.4-0.7
	c-0.2-0.4-0.4-0.7-0.5-1.1l-0.5-1c-0.1-0.2-0.2-0.3-0.3-0.5v0.4v2.3v0.7c0,0,0,0.1,0,0.1c0,0-0.1-0.1-0.1-0.1v-0.7v-1v-1.5
	C568.4,287.6,568.4,287.4,568.4,287.3"/>
<path class="st0" d="M543.8,288.1l0.3,0v0.1c0,0.1-0.1,0.2-0.1,0.3L543.8,288.1z"/>
<path class="st1" d="M100.7,366.4c3,4.5,4.7,9.8,4.7,15.6c0,15.6-12.6,28.2-28.2,28.2c-15.6,0-28.2-12.6-28.2-28.2
	c0-15.6,12.6-28.2,28.2-28.2c5.8,0,11.2,1.8,15.7,4.8h7.6L100.7,366.4z"/>
<polygon class="st2" points="155.9,549.7 155.9,546.4 157.2,546.4 157.2,538.3 167,538.3 167,541 166.6,541 166.6,546.5 167,546.5 
	167,549.3 167,549.7 "/>
<polygon class="st2" points="151.4,540.1 151.8,550.4 146.7,550.4 146.7,549.8 144.7,549.8 144.7,546.7 143.9,546.7 143.9,545.2 
	144.2,545.2 144.2,544.6 143.6,544.6 143.6,543 144.4,543 144.4,542.3 143.6,542.3 143.6,541.4 144.4,541.4 144.4,540.3 
	143.6,540.3 143.6,539.4 144.3,539.4 144.3,538.6 145.3,538.6 145.3,537.5 151.4,537.5 "/>
<polygon class="st2" points="140.5,540.1 140.9,550.4 135.8,550.4 135.8,549.8 133.8,549.8 133.8,546.7 133,546.7 133,545.2 
	133.4,545.2 133.4,544.6 132.8,544.6 132.8,543 133.5,543 133.5,542.3 132.8,542.3 132.8,541.4 133.5,541.4 133.5,540.3 
	132.8,540.3 132.8,539.4 133.4,539.4 133.4,538.6 134.4,538.6 134.4,537.5 140.5,537.5 "/>
<rect x="104" y="359.6" class="st1" width="15.2" height="5.9"/>
<rect x="99.8" y="510.2" class="st3" width="19.7" height="5"/>
<rect x="99.8" y="504.3" class="st3" width="19.7" height="5"/>
<rect x="107.9" y="518.4" class="st3" width="5.8" height="24"/>
<rect x="115.5" y="515.8" class="st3" width="3.9" height="33.3"/>
<rect x="99.3" y="544.4" class="st3" width="8" height="5"/>
<rect x="69.6" y="543.1" class="st3" width="13.4" height="5.6"/>
<rect x="76.3" y="513.2" class="st3" width="6" height="6"/>
<rect x="76.3" y="519.2" class="st3" width="6" height="8.6"/>
<rect x="71" y="513.1" class="st3" width="4.8" height="16.7"/>
<rect x="53.9" y="529.6" class="st3" width="6.3" height="10.5"/>
<circle class="st3" cx="78.5" cy="531.4" r="1.6"/>
<circle class="st3" cx="78.5" cy="535.9" r="1.6"/>
<circle class="st3" cx="78.5" cy="540.6" r="1.6"/>
<circle class="st3" cx="103.3" cy="520.4" r="2.3"/>
<circle class="st3" cx="103.3" cy="526.2" r="2.3"/>
<circle class="st3" cx="103.3" cy="532.1" r="2.3"/>
<circle class="st4" cx="184.5" cy="524" r="1.2"/>
<rect x="50.7" y="512.7" class="st3" width="12.7" height="31.5"/>
<path class="st3" d="M121.6,551H72.2c-2.1,0-3.9-1.8-3.9-3.9v-35.6c0-2.1,1.8-3.9,3.9-3.9h49.4c2.1,0,3.9,1.8,3.9,3.9v35.6
	C125.5,549.3,123.7,551,121.6,551z"/>
<path class="st3" d="M51.4,548.8c-2.1,0-3.9-1.8-3.9-3.9v-33.3c0-2.1,1.8-3.9,3.9-3.9h11.3c2.1,0,3.9,1.8,3.9,3.9v33.3
	c0,2.1-1.8,3.9-3.9,3.9"/>
<path class="st3" d="M108.8,548.4h-0.3c-0.2,0-0.5-0.2-0.5-0.5v-2.4c0-0.2,0.2-0.5,0.5-0.5h0.3c0.2,0,0.5,0.2,0.5,0.5v2.4
	C109.2,548.2,109,548.4,108.8,548.4z"/>
<path class="st3" d="M110.4,548.4h-0.3c-0.2,0-0.5-0.2-0.5-0.5v-2.4c0-0.2,0.2-0.5,0.5-0.5h0.3c0.2,0,0.5,0.2,0.5,0.5v2.4
	C110.8,548.2,110.6,548.4,110.4,548.4z"/>
<path class="st3" d="M112,548.4h-0.3c-0.2,0-0.5-0.2-0.5-0.5v-2.4c0-0.2,0.2-0.5,0.5-0.5h0.3c0.2,0,0.5,0.2,0.5,0.5v2.4
	C112.5,548.2,112.3,548.4,112,548.4z"/>
<path class="st3" d="M113.6,548.4h-0.3c-0.2,0-0.5-0.2-0.5-0.5v-2.4c0-0.2,0.2-0.5,0.5-0.5h0.3c0.2,0,0.5,0.2,0.5,0.5v2.4
	C114,548.2,113.9,548.4,113.6,548.4z"/>
<rect x="86.3" y="530.3" class="st3" width="11.6" height="0.3"/>
<rect x="91.9" y="524.6" class="st3" width="0.3" height="11.6"/>
<rect x="86.3" y="543.6" class="st3" width="11.6" height="0.3"/>
<rect x="91.9" y="538" class="st3" width="0.3" height="11.6"/>
<circle class="st3" cx="92" cy="530.4" r="5.8"/>
<rect x="86.3" y="516.8" class="st3" width="11.6" height="0.3"/>
<rect x="91.9" y="511.2" class="st3" width="0.3" height="11.6"/>
<circle class="st3" cx="92" cy="517" r="5.8"/>
<circle class="st3" cx="92" cy="543.8" r="5.8"/>
<rect x="250.7" y="502.1" class="st5" width="9" height="0.2"/>
<rect x="255.1" y="497.7" class="st5" width="0.2" height="9"/>
<circle class="st4" cx="255.2" cy="502.2" r="4.5"/>
<rect x="250.7" y="517.3" class="st5" width="9" height="0.2"/>
<rect x="255.1" y="512.9" class="st5" width="0.2" height="9"/>
<circle class="st4" cx="255.2" cy="517.4" r="4.5"/>
<rect x="218.7" y="468.3" class="st5" width="4.6" height="0.1"/>
<rect x="221" y="466" class="st5" width="0.1" height="4.6"/>
<circle class="st4" cx="221" cy="468.3" r="2.3"/>
<rect x="218.7" y="474.4" class="st5" width="4.6" height="0.1"/>
<rect x="221" y="472.1" class="st5" width="0.1" height="4.6"/>
<circle class="st4" cx="221" cy="474.4" r="2.3"/>
<rect x="218.7" y="481.3" class="st5" width="4.6" height="0.1"/>
<rect x="221" y="479.1" class="st5" width="0.1" height="4.6"/>
<circle class="st4" cx="221" cy="481.4" r="2.3"/>
<text transform="matrix(1 0 0 1 66.6081 383.529)" class="st6 st7">冷却塔</text>
<text transform="matrix(1 0 0 1 187.3129 388.6307)" class="st6 st8">锅</text>
<text transform="matrix(1 0 0 1 193.1946 388.6307)" class="st6 st8">炉</text>
<text transform="matrix(1 0 0 1 188.0599 431.6239)" class="st6 st8">锅</text>
<text transform="matrix(1 0 0 1 193.9416 431.6239)" class="st6 st8">炉</text>
<text transform="matrix(1 0 0 1 313.601 455.1113)" class="st6 st8">煤</text>
<text transform="matrix(1 0 0 1 313.601 465.4032)" class="st6 st8">场</text>
<text transform="matrix(1 0 0 1 242.318 507.081)" class="st6 st9">油</text>
<text transform="matrix(1 0 0 1 242.318 512.6014)" class="st6 st9">库</text>
<text transform="matrix(1 0 0 1 242.318 518.3669)" class="st6 st9">区</text>
<text transform="matrix(1 0 0 1 144.2463 463.0093)" class="st6 st9">化</text>
<text transform="matrix(1 0 0 1 148.4808 463.0093)" class="st6 st9">验区</text>
<path class="st10" d="M77.3,360.9c-11.8,0-21.2,9.5-21.2,21.2c0,11.8,9.5,21.2,21.2,21.2c11.7,0,21.2-9.5,21.2-21.2
	C98.5,370.4,89,360.9,77.3,360.9 M77.3,394.8c-7,0-12.8-5.7-12.8-12.8s5.7-12.8,12.8-12.8c7,0,12.8,5.7,12.8,12.8
	C90,389.1,84.3,394.8,77.3,394.8"/>
<line class="st1" x1="100.6" y1="358.6" x2="104" y2="359.6"/>
<line class="st1" x1="101" y1="366.7" x2="104" y2="365.5"/>
<path class="st1" d="M100.7,456.8c3,4.5,4.7,9.8,4.7,15.6c0,15.6-12.6,28.2-28.2,28.2c-15.6,0-28.2-12.6-28.2-28.2
	c0-15.6,12.6-28.2,28.2-28.2c5.8,0,11.2,1.8,15.7,4.8h7.6L100.7,456.8z"/>
<rect x="104.9" y="450.3" class="st1" width="15.2" height="5.9"/>
<text transform="matrix(1 0 0 1 66.6081 474.4683)" class="st6 st7">冷却塔</text>
<path class="st10" d="M77.3,451.3c-11.8,0-21.2,9.5-21.2,21.2c0,11.7,9.5,21.2,21.2,21.2c11.7,0,21.2-9.5,21.2-21.2
	C98.5,460.8,89,451.3,77.3,451.3 M77.3,485.3c-7,0-12.8-5.7-12.8-12.8c0-7,5.7-12.8,12.8-12.8c7,0,12.8,5.7,12.8,12.8
	C90,479.6,84.3,485.3,77.3,485.3"/>
<line class="st1" x1="100.6" y1="449" x2="104.9" y2="450.3"/>
<line class="st1" x1="100.7" y1="456.8" x2="104.9" y2="456.2"/>
<text transform="matrix(1 0 0 1 102.7427 448.2)" class="st6 st11">循</text>
<text transform="matrix(1 0 0 1 106.9645 448.2)" class="st6 st11">环水泵房</text>
<text transform="matrix(1 0 0 1 102.7427 371.7848)" class="st6 st11">循</text>
<text transform="matrix(1 0 0 1 106.9645 371.7848)" class="st6 st11">环水泵房</text>
<text transform="matrix(1 0 0 1 100.9741 345.0964)" class="st6 st11">#2机泵房</text>
<text transform="matrix(1 0 0 1 74.5622 321.1129)" class="st6 st11">郑西供热首站</text>
<text transform="matrix(1 0 0 1 159.4272 335.5163)" class="st6 st11">运动场</text>
<text transform="matrix(1 0 0 1 131.3347 370.4657)" class="st6 st11">供热首站</text>
<text transform="matrix(1 0 0 1 132.9236 380.1845)" class="st6 st12">#2机污油箱</text>
<rect x="107.3" y="415.5" class="st4" width="7.7" height="24.4"/>
<polyline class="st13" points="122.3,394.4 122.3,349.2 44.2,348.4 44.2,554.8 129.7,554.8 179.3,554.8 189.6,554.8 291.2,554.8 
	304.2,554.8 341.3,554.8 341.3,374.8 361.1,374.8 361.1,329.2 415,329.2 415,319.7 422.6,319.7 422.6,300.1 520,300.1 "/>
<path class="st3" d="M153.8,530.5h-21.6c-2.1,0-3.9-1.8-3.9-3.9v-65.1c0-2.1,1.8-3.9,3.9-3.9h21.6c2.1,0,3.9,1.8,3.9,3.9v65
	C157.7,528.8,155.9,530.5,153.8,530.5z"/>
<path class="st3" d="M203.1,531.4h-36.9c-2.1,0-3.9-1.8-3.9-3.9v-4.2c0-2.1,1.8-3.9,3.9-3.9h36.8c2.1,0,3.9,1.8,3.9,3.9v4.2
	C207,529.7,205.3,531.4,203.1,531.4z"/>
<path class="st3" d="M162.4,511.5c0,0-1.1,6.3,1.7,6.3h15.6v-2.1H190v2.1h13.3c0,0,3.7,0.9,3.7-6h-0.9v-42.8c0,0,3.6-2.3-1.2-4.2
	h-8.6c0,0-2.9,0.3-2.9,2.7v6.7h-7h-3.9h-6.8v-6.8c0,0,0.2-2.6-2.9-2.6H165c0,0-3.8,0.5-2.1,4.4v6.5l-1,1v12.6l0.8,0.8h5v10.3h-5.3
	v2.7V511.5L162.4,511.5z"/>
<rect x="198.7" y="537.2" class="st3" width="30.9" height="13.8"/>
<rect x="233" y="534.6" class="st3" width="3.5" height="15.2"/>
<rect x="239.4" y="534.6" class="st3" width="6.5" height="12.3"/>
<rect x="236.5" y="549.8" class="st3" width="12.8" height="3.2"/>
<rect x="248.5" y="534.6" class="st3" width="3.2" height="14.7"/>
<polygon class="st14" points="261.6,537.8 261.6,540.2 259.3,540.2 259.3,537.8 257.2,537.8 257.2,549.9 259.3,549.9 259.3,547.3 
	261.6,547.3 261.6,549.9 263.9,549.9 263.9,537.8 "/>
<path class="st15" d="M261.4,543.8c0,0.5-0.4,0.8-0.8,0.8c-0.5,0-0.8-0.4-0.8-0.8c0-0.5,0.4-0.8,0.8-0.8
	C261,543,261.4,543.4,261.4,543.8"/>
<path class="st3" d="M226.8,530.5h-11.5c-2.1,0-3.9-1.7-3.9-3.8V509c0-2.1,1.8-3.7,3.9-3.7h11.5c2.1,0,3.9,1.7,3.9,3.7v17.8
	C230.7,528.9,228.9,530.5,226.8,530.5z"/>
<path class="st3" d="M226.8,503.2h-11.5c-2.1,0-3.9-1.8-3.9-3.9v-11.5c0-2.1,1.8-3.9,3.9-3.9h11.5c2.1,0,3.9,1.8,3.9,3.9v11.5
	C230.7,501.4,228.9,503.2,226.8,503.2z"/>
<path class="st3" d="M228.5,464.9h-14.4c-1.5,0-2.8-1.2-2.8-2.8V461c0-1.5,1.2-2.8,2.8-2.8h14.4c1.5,0,2.8,1.2,2.8,2.8v1.2
	C231.2,463.7,230,464.9,228.5,464.9z"/>
<path class="st3" d="M264.4,486.3h-27.9c-2.1,0-3.9-1.8-3.9-3.9v-20.3c0-2.1,1.8-3.9,3.9-3.9h27.9c2.1,0,3.9,1.8,3.9,3.9v20.3
	C268.3,484.5,266.5,486.3,264.4,486.3z"/>
<path class="st3" d="M265,530.5h-28.5c-2.1,0-3.9-1.8-3.9-3.9v-33.8c0-2.1,1.8-3.9,3.9-3.9H265c2.1,0,3.9,1.8,3.9,3.9v33.8
	C268.9,528.8,267.1,530.5,265,530.5z"/>
<path class="st3" d="M165.7,450.4c0,2.6-2.1,4.7-4.7,4.7h-28c-2.6,0-4.7-2.1-4.7-4.7V416c0-2.6,2.1-4.7,4.7-4.7"/>
<path class="st3" d="M148.6,408.7H133c-2.6,0-4.7-2.1-4.7-4.7v-37.1c0-2.6,2.1-4.7,4.7-4.7h26.7c2.6,0,4.7,2.1,4.7,4.7v3.7"/>
<rect x="137.2" y="387.2" class="st3" width="13.3" height="20.3"/>
<rect x="137.2" y="413.4" class="st3" width="12.7" height="36.9"/>
<polygon class="st3" points="150.5,370.6 150.5,407.5 148.7,407.5 148.7,412.7 150.5,412.7 150.5,450.3 165.7,450.3 167.5,450.3 
	175.1,450.3 175.1,446.3 179,446.3 179,413.4 197.1,413.4 197.1,411.3 199.2,411.3 199.2,406 197.1,406 197.1,403.3 179.1,403.3 
	179.1,370.6 175,370.6 175,365.3 169,365.3 169,367.8 167.4,367.8 167.4,370.5 164.4,370.5 "/>
<rect x="180" y="373.8" class="st16" width="28.1" height="26.7"/>
<rect x="180" y="416.4" class="st16" width="28.6" height="26.7"/>
<rect x="212.7" y="371.8" class="st3" width="10.6" height="31"/>
<rect x="225.5" y="373.8" class="st3" width="4.9" height="27.2"/>
<rect x="212.7" y="414.3" class="st3" width="10.6" height="31"/>
<rect x="225.5" y="416.3" class="st3" width="4.9" height="27.2"/>
<rect x="237.4" y="377.8" class="st3" width="3.3" height="26.9"/>
<rect x="237.4" y="412.8" class="st3" width="3.2" height="27.2"/>
<rect x="230.5" y="377.8" class="st3" width="6.9" height="2.4"/>
<rect x="230.5" y="393.9" class="st3" width="6.9" height="2.8"/>
<rect x="230.5" y="420.2" class="st3" width="6.9" height="2.7"/>
<rect x="230.5" y="436.3" class="st3" width="6.9" height="2.4"/>
<rect x="214.1" y="404.1" class="st3" width="13.9" height="8.3"/>
<rect x="201.1" y="404.7" class="st3" width="7" height="8"/>
<line class="st3" x1="223.3" y1="371.8" x2="225.5" y2="373.8"/>
<line class="st3" x1="225.5" y1="401" x2="223.3" y2="402.8"/>
<line class="st3" x1="223.3" y1="414.3" x2="225.5" y2="416.3"/>
<line class="st3" x1="225.5" y1="443.5" x2="223.3" y2="445.3"/>
<rect x="245.2" y="376.3" class="st3" width="8.1" height="10.1"/>
<rect x="262.9" y="412.8" class="st3" width="4.2" height="4.7"/>
<rect x="258.8" y="418" class="st3" width="8.3" height="6.9"/>
<rect x="258.8" y="403.3" class="st3" width="8.3" height="6.9"/>
<rect x="258.8" y="382.6" class="st3" width="8.3" height="11.8"/>
<rect x="246.7" y="404.7" class="st3" width="8.9" height="7.6"/>
<rect x="258.8" y="425.7" class="st3" width="8.3" height="14.7"/>
<rect x="258.8" y="440.4" class="st3" width="8.3" height="10.5"/>
<rect x="245.2" y="431.2" class="st3" width="8.8" height="9.2"/>
<rect x="246.7" y="420.8" class="st3" width="6.1" height="10.4"/>
<rect x="245.3" y="445.4" class="st3" width="10" height="5.6"/>
<rect x="246.7" y="386.4" class="st3" width="6.1" height="9.4"/>
<rect x="241.2" y="397.4" class="st3" width="5.7" height="3.6"/>
<rect x="240.7" y="380.2" class="st3" width="4.7" height="4.7"/>
<rect x="240.6" y="431.9" class="st3" width="4.8" height="4.8"/>
<rect x="240.7" y="415.7" class="st3" width="6.1" height="4.4"/>
<rect x="254.4" y="397.4" class="st3" width="1.8" height="5.4"/>
<rect x="254" y="415.2" class="st3" width="2.2" height="4"/>
<circle class="st3" cx="250.4" cy="417.2" r="3.6"/>
<circle class="st3" cx="243.1" cy="463.5" r="3.6"/>
<circle class="st3" cx="250.4" cy="399.2" r="3.6"/>
<circle class="st3" cx="262.9" cy="400.1" r="3.2"/>
<circle class="st3" cx="255.6" cy="423.6" r="1.9"/>
<circle class="st3" cx="260.3" cy="414.7" r="1.9"/>
<circle class="st3" cx="257.4" cy="404.1" r="1.2"/>
<path class="st3" d="M264.4,455.1h-49.1c-2.1,0-3.9-1.8-3.9-3.9V366c0-2.1,1.8-3.9,3.9-3.9h49.1c2.1,0,3.9,1.8,3.9,3.9v85.2
	C268.3,453.4,266.5,455.1,264.4,455.1z"/>
<path class="st3" d="M175.3,366.8c0-2.6,2.1-4.7,4.7-4.7h24.7c2.6,0,4.7,2.1,4.7,4.7v83.5c0,2.6-2.1,4.7-4.7,4.7"/>
<rect x="236.5" y="472.7" class="st3" width="26.4" height="11.2"/>
<rect x="252.3" y="459.2" class="st3" width="10.6" height="9.8"/>
<rect x="247.7" y="494.8" class="st3" width="14.5" height="29.3"/>
<rect x="236.5" y="495.2" class="st3" width="4.1" height="11.7"/>
<path class="st3" d="M331.5,548h-56.1c-2.1,0-3.9-1.8-3.9-3.9V366c0-2.1,1.8-3.9,3.9-3.9h56.1c2.1,0,3.9,1.8,3.9,3.9v178.1
	C335.4,546.2,333.6,548,331.5,548z"/>
<rect x="309.5" y="535.7" class="st3" width="23.7" height="10.2"/>
<rect x="309.5" y="540.7" class="st3" width="11.1" height="5.1"/>
<rect x="275.7" y="377.8" class="st3" width="9.6" height="4.7"/>
<rect x="319.3" y="379" class="st3" width="9.8" height="4.5"/>
<rect x="236" y="364" class="st3" width="5.7" height="8.8"/>
<rect x="248.6" y="363.6" class="st3" width="5.5" height="9.1"/>
<rect x="257.9" y="364" class="st3" width="7.4" height="9.8"/>
<rect x="294.8" y="366" class="st3" width="2.6" height="4.5"/>
<rect x="297.4" y="364" class="st3" width="11.5" height="13.2"/>
<rect x="308.9" y="366.6" class="st3" width="42.9" height="3.8"/>
<rect x="265.3" y="366.6" class="st3" width="29.5" height="3.8"/>
<rect x="175.3" y="366.8" class="st3" width="73.2" height="3.1"/>
<rect x="351.8" y="364.7" class="st3" width="6.6" height="7.4"/>
<rect x="351.8" y="336.9" class="st3" width="6.6" height="7.4"/>
<rect x="352.8" y="319.3" class="st3" width="3.7" height="45.4"/>
<rect x="350.4" y="310.3" class="st3" width="7.9" height="9"/>
<rect x="376" y="308.6" class="st3" width="5" height="9.8"/>
<rect x="381" y="310.3" class="st3" width="32.9" height="6.2"/>
<rect x="413.9" y="308.6" class="st3" width="4.2" height="9.8"/>
<rect x="418.1" y="310.3" class="st3" width="3.6" height="6.2"/>
<rect x="348.7" y="280.3" class="st3" width="14.5" height="13.3"/>
<rect x="363.2" y="282.8" class="st17" width="17.2" height="8.2"/>
<line class="st18" x1="348.7" y1="294.8" x2="520" y2="294.8"/>
<line class="st18" x1="363.2" y1="289.8" x2="520" y2="289.8"/>
<line class="st18" x1="409.6" y1="289.8" x2="423" y2="287"/>
<line class="st18" x1="520" y1="287" x2="423" y2="287"/>
<rect x="275.7" y="384.9" class="st3" width="53.3" height="155.8"/>
<path class="st3" d="M288.6,531.4h-2.7c-2.1,0-3.9-1.8-3.9-3.9V395.2c0-2.1,1.8-3.9,3.9-3.9h2.7c2.1,0,3.9,1.8,3.9,3.9v132.3
	C292.5,529.7,290.8,531.4,288.6,531.4z"/>
<path class="st3" d="M317.5,531.4h-2.7c-2.1,0-3.9-1.8-3.9-3.9V395.2c0-2.1,1.8-3.9,3.9-3.9h2.7c2.1,0,3.9,1.8,3.9,3.9v132.3
	C321.4,529.7,319.6,531.4,317.5,531.4z"/>
<rect x="299.6" y="377.2" class="st3" width="5.3" height="162.6"/>
<circle class="st3" cx="302.3" cy="461.5" r="3.7"/>
<line class="st3" x1="298.8" y1="460.4" x2="290.1" y2="460.9"/>
<line class="st3" x1="298.9" y1="463.1" x2="289.9" y2="463.1"/>
<line class="st3" x1="296" y1="461.5" x2="308.8" y2="461.5"/>
<line class="st3" x1="290.9" y1="459.8" x2="290.9" y2="464.9"/>
<line class="st3" x1="288.5" y1="461.8" x2="293.5" y2="461.8"/>
<circle class="st3" cx="302.3" cy="423.9" r="3.7"/>
<line class="st3" x1="305.8" y1="425" x2="314.4" y2="424.6"/>
<line class="st3" x1="305.6" y1="422.3" x2="314.6" y2="422.3"/>
<line class="st3" x1="308.6" y1="423.9" x2="295.8" y2="423.9"/>
<line class="st3" x1="313.7" y1="425.6" x2="313.7" y2="420.5"/>
<line class="st3" x1="316.1" y1="423.6" x2="311.1" y2="423.6"/>
<line class="st3" x1="115" y1="422" x2="120.1" y2="422"/>
<line class="st3" x1="115" y1="433.2" x2="117.6" y2="433.2"/>
<line class="st3" x1="116.3" y1="436.7" x2="116.3" y2="393.9"/>
<line class="st3" x1="112.5" y1="391.3" x2="120.1" y2="398.4"/>
<line class="st3" x1="114" y1="407.8" x2="120.1" y2="407.8"/>
<line class="st3" x1="116.3" y1="394.8" x2="144.5" y2="394.8"/>
<line class="st3" x1="116.3" y1="426.4" x2="132.9" y2="426.4"/>
<line class="st3" x1="116.3" y1="433.2" x2="142.4" y2="437.5"/>
<line class="st3" x1="143.6" y1="389.3" x2="143.6" y2="448.8"/>
<path class="st3" d="M144.4,399.2h-0.8c-1.1,0-1.9-0.9-1.9-1.9V393c0-1.1,0.9-1.9,1.9-1.9h0.8c1.1,0,1.9,0.9,1.9,1.9v4.3
	C146.3,398.3,145.5,399.2,144.4,399.2z"/>
<path class="st3" d="M144,407.5h-0.7c-0.9,0-1.7-0.7-1.7-1.7v-0.7c0-0.9,0.7-1.7,1.7-1.7h0.7c0.9,0,1.7,0.7,1.7,1.7v0.7
	C145.6,406.8,144.9,407.5,144,407.5z"/>
<path class="st3" d="M144.2,420.8h-0.6c-0.8,0-1.4-0.6-1.4-1.4v-2.8c0-0.8,0.6-1.4,1.4-1.4h0.6c0.8,0,1.4,0.6,1.4,1.4v2.8
	C145.6,420.2,145,420.8,144.2,420.8z"/>
<path class="st3" d="M144.4,441.9h-0.8c-1.1,0-1.9-0.9-1.9-1.9v-6c0-1.1,0.9-1.9,1.9-1.9h0.8c1.1,0,1.9,0.9,1.9,1.9v6
	C146.3,441,145.5,441.9,144.4,441.9z"/>
<path class="st3" d="M143.4,450.3h0.5c0.6,0,1.2-0.6,1.2-1.2v-1.9c0-0.6-0.5-1.2-1.2-1.2h-0.5c-0.7,0-1.2,0.6-1.2,1.2v1.9
	C142.2,449.8,142.8,450.3,143.4,450.3z"/>
<line class="st3" x1="130.4" y1="423.4" x2="135.6" y2="429.2"/>
<line class="st3" x1="130.4" y1="415.2" x2="135.6" y2="420.8"/>
<line class="st3" x1="132.9" y1="426.4" x2="132.9" y2="418"/>
<line class="st3" x1="143.6" y1="417.2" x2="132.9" y2="417.2"/>
<path class="st3" d="M135.9,402.5h-0.6c-0.7,0-1.4-0.6-1.4-1.4v-0.6c0-0.7,0.6-1.4,1.4-1.4h0.6c0.7,0,1.4,0.6,1.4,1.4v0.6
	C137.2,401.9,136.6,402.5,135.9,402.5z"/>
<line class="st19" x1="184.6" y1="564.6" x2="184.6" y2="533"/>
<polyline class="st19" points="297.4,564.6 297.4,551 337,551 337,361.2 345.9,361.2 345.9,300.4 413.9,300.4 413.9,326.8 
	345.9,326.9 "/>
<polyline class="st19" points="337,361.2 126.8,361.1 126.8,552.2 46.6,552.2 46.6,506.9 99.8,506.9 "/>
<line class="st19" x1="119.5" y1="506.7" x2="126.8" y2="506.7"/>
<line class="st19" x1="67.5" y1="506.9" x2="67.5" y2="552.2"/>
<polyline class="st19" points="126.8,531.4 158.4,531.4 158.4,456.2 "/>
<line class="st19" x1="126.8" y1="456.6" x2="270.2" y2="456.6"/>
<polyline class="st19" points="210.2,361.1 210.2,532.1 270.2,532.1 270.2,551 297.4,551 "/>
<line class="st19" x1="231.8" y1="456.6" x2="231.8" y2="532.1"/>
<line class="st19" x1="270.2" y1="311.9" x2="270.2" y2="532.1"/>
<line class="st19" x1="231.8" y1="488" x2="270.2" y2="488"/>
<line class="st19" x1="126.8" y1="410.1" x2="148.7" y2="410.1"/>
<path class="st3" d="M174.7,553.7h-42.6c-2.1,0-3.9-1.8-3.9-3.9v-13c0-2.1,1.8-3.9,3.9-3.9h42.6c2.1,0,3.9,1.8,3.9,3.9v13
	C178.6,552,176.9,553.7,174.7,553.7z"/>
<path class="st3" d="M264.4,553.7h-70.6c-2.1,0-3.9-1.8-3.9-3.9v-12.3c0-2.1,1.8-3.9,3.9-3.9h70.6c2.1,0,3.9,1.8,3.9,3.9v12.3
	C268.3,552,266.5,553.7,264.4,553.7z"/>
<line class="st3" x1="51.3" y1="544.2" x2="51.3" y2="548.8"/>
<line class="st3" x1="62.6" y1="544.2" x2="62.6" y2="548.8"/>
<rect x="180.1" y="553.7" class="st20" width="9.1" height="2.1"/>
<rect x="293.7" y="553.7" class="st20" width="7.6" height="2.1"/>
<text transform="matrix(1 0 0 1 135.5718 389.3344)" class="st6 st11">电</text>
<text transform="matrix(1 0 0 1 135.5718 393.5688)" class="st6 st11">网</text>
<text transform="matrix(1 0 0 1 135.5718 397.8034)" class="st6 st11">变</text>
<text transform="matrix(1 0 0 1 135.5718 402.0378)" class="st6 st11">压</text>
<text transform="matrix(1 0 0 1 135.5718 406.2713)" class="st6 st11">器</text>
<text transform="matrix(1 0 0 1 135.5718 424.0113)" class="st6 st11">电</text>
<text transform="matrix(1 0 0 1 135.5718 428.2457)" class="st6 st11">网</text>
<text transform="matrix(1 0 0 1 135.5718 432.4802)" class="st6 st11">变</text>
<text transform="matrix(1 0 0 1 135.5718 436.7137)" class="st6 st11">压</text>
<text transform="matrix(1 0 0 1 135.5718 440.9476)" class="st6 st11">器</text>
<g>
	<text transform="matrix(1 0 0 1 288.485 570.6577)" class="st6 st21">煤场入口</text>
</g>
<g>
	<text transform="matrix(1 0 0 1 176.3431 570.6577)" class="st6 st21">大门入口</text>
</g>
<text transform="matrix(1 0 0 1 108.6479 422.0576)" class="st6 st21">继</text>
<text transform="matrix(1 0 0 1 108.6479 426.735)" class="st6 st21">电</text>
<text transform="matrix(1 0 0 1 108.6479 431.4109)" class="st6 st21">器</text>
<text transform="matrix(1 0 0 1 108.6479 436.0873)" class="st6 st21">室</text>
<text transform="matrix(1 0 0 1 119.6832 407.0818)" class="st6 st21">屋</text>
<text transform="matrix(1 0 0 1 119.6832 411.7585)" class="st6 st21">外</text>
<text transform="matrix(1 0 0 1 119.6832 416.4351)" class="st6 st21">配</text>
<text transform="matrix(1 0 0 1 119.6832 421.1108)" class="st6 st21">电</text>
<text transform="matrix(1 0 0 1 119.6832 425.7874)" class="st6 st21">装</text>
<text transform="matrix(1 0 0 1 119.6832 430.4633)" class="st6 st21">置</text>
<text transform="matrix(1 0 0 1 170.8874 496.5179)" class="st6 st22">综合生产办公楼</text>
<text transform="matrix(1 0 0 1 223.6662 468.9391)" class="st6 st12">原灰库</text>
<text transform="matrix(1 0 0 1 223.6662 475.1898)" class="st6 st12">粗灰库</text>
<text transform="matrix(1 0 0 1 243.1066 478.9789)" class="st6 st12">启动锅炉房</text>
<text transform="matrix(1 0 0 1 253.7824 464.8749)" class="st6 st12">液氨区</text>
<text transform="matrix(1 0 0 1 236.765 463.0093)" class="st6 st12">石灰粉浆</text>
<text transform="matrix(1 0 0 1 236.765 466.1269)" class="st6 st12">液制备箱</text>
<text transform="matrix(1 0 0 1 223.6662 482.0912)" class="st6 st12">细灰库</text>
<text transform="matrix(1 0 0 1 215.4536 493.4009)" class="st6 st12">兴安输灰</text>
<text transform="matrix(1 0 0 1 215.4536 496.5179)" class="st6 st12">空压机房</text>
<text transform="matrix(1 0 0 1 214.1322 512.2106)" class="st6 st12">洗水池</text>
<text transform="matrix(1 0 0 1 181.7485 409.7103)" class="st6 st21">集控楼</text>
<text transform="matrix(1 0 0 1 199.7105 406.9616)" class="st6 st23">锅水精</text>
<text transform="matrix(1 0 0 1 199.7105 410.8582)" class="st6 st23">处理设</text>
<text transform="matrix(1 0 0 1 199.7105 414.7552)" class="st6 st23">施</text>
<text transform="matrix(1 0 0 1 214.1322 409.7103)" class="st6 st21">空压机室</text>
<text transform="matrix(1 0 0 1 215.4536 429.3896)" class="st6 st21">除</text>
<text transform="matrix(1 0 0 1 215.4536 434.0663)" class="st6 st21">尘</text>
<text transform="matrix(1 0 0 1 215.4536 438.7429)" class="st6 st21">器</text>
<text transform="matrix(1 0 0 1 215.4536 389.4467)" class="st6 st21">除</text>
<text transform="matrix(1 0 0 1 215.4536 394.123)" class="st6 st21">尘</text>
<text transform="matrix(1 0 0 1 215.4536 398.7997)" class="st6 st21">器</text>
<text transform="matrix(1 0 0 1 226.2083 383.6529)" class="st6 st21">引</text>
<text transform="matrix(1 0 0 1 226.2083 388.3287)" class="st6 st21">风</text>
<text transform="matrix(1 0 0 1 226.2083 393.0049)" class="st6 st21">机</text>
<text transform="matrix(1 0 0 1 226.2083 424.4443)" class="st6 st21">引</text>
<text transform="matrix(1 0 0 1 226.2083 429.1218)" class="st6 st21">风</text>
<text transform="matrix(1 0 0 1 226.2083 433.7976)" class="st6 st21">机</text>
<text transform="matrix(1 0 0 1 255.3352 377.1952)" class="st6 st23">石</text>
<text transform="matrix(1 0 0 1 255.3352 381.0923)" class="st6 st23">膏</text>
<text transform="matrix(1 0 0 1 255.3352 384.9897)" class="st6 st23">脱</text>
<text transform="matrix(1 0 0 1 255.3352 388.8864)" class="st6 st23">水</text>
<text transform="matrix(1 0 0 1 255.3352 392.783)" class="st6 st23">系</text>
<text transform="matrix(1 0 0 1 255.3352 396.6796)" class="st6 st23">统</text>
<text transform="matrix(1 0 0 1 86.2643 531.3425)" class="st6 st21">化学水处理设施</text>
<text transform="matrix(1 0 0 1 395.7141 284.1717)" class="st6 st21">火车煤采样装置</text>
<text transform="matrix(1 0 0 1 388.7317 314.3211)" class="st6 st21">卸煤沟</text>
<text transform="matrix(1 0 0 1 447.8306 284.1717)" class="st6 st21">厂内铁路卸煤线</text>
<text transform="matrix(1 0 0 1 364.0353 287.7342)" class="st6 st21">翻车机室</text>
<g>
	<text transform="matrix(1 0 0 1 343.9477 307.5895)" class="st6 st24">汽车采样</text>
</g>
<g>
	<text transform="matrix(1 0 0 1 343.9477 336.5787)" class="st6 st24">汽车衡</text>
</g>
<g>
	<text transform="matrix(1 0 0 1 137.2965 539.9136)" class="st6 st25">宿舍</text>
</g>
<g>
	<text transform="matrix(1 0 0 1 57.0453 525.2389)" class="st6 st25">氢气库</text>
</g>
<g>
	<text transform="matrix(1 0 0 1 167.061 405.2351)" class="st6 st26">汽机房</text>
</g>
<g>
	<text transform="matrix(1 0 0 1 148.0949 539.9136)" class="st6 st25">宿舍</text>
</g>
<g>
	<text transform="matrix(1 0 0 1 214.1322 539.9136)" class="st6 st25">宿舍</text>
</g>
<g>
	<text transform="matrix(1 0 0 1 162.2204 539.9136)" class="st6 st25">食堂</text>
</g>
<rect x="214.1" y="486.7" class="st3" width="12.6" height="14.6"/>
<rect x="214.1" y="515.1" class="st3" width="7.6" height="13.3"/>
<rect x="223.1" y="519.2" class="st3" width="5.2" height="9.1"/>
<rect x="214.1" y="508.7" class="st3" width="7.6" height="5.2"/>
<text transform="matrix(1 0 0 1 219.5122 516.5941)" class="st6 st24">冷煤油废</text>
<text transform="matrix(1 0 0 1 216.3942 516.5941)" class="st6 st24">水处理间</text>
<text transform="matrix(1 0 0 1 225.6417 519.5981)" class="st6 st24">废水池</text>
<rect x="157.7" y="461.6" class="st20" width="1.8" height="3.8"/>
<text transform="matrix(1 0 0 1 238.5365 429.2689)" class="st6 st9">脱</text>
<text transform="matrix(1 0 0 1 242.7708 429.2689)" class="st6 st9">硫区</text>
<rect x="47" y="310.3" class="st1" width="76.1" height="18.9"/>
<rect x="97.8" y="336.5" class="st1" width="24.5" height="12.7"/>
<rect x="131.3" y="364.2" class="st1" width="16.8" height="8.5"/>
<rect x="140.6" y="374.8" class="st1" width="7.5" height="8.5"/>
<rect x="128.2" y="311.9" class="st1" width="80.4" height="44.2"/>
<rect x="208.6" y="311.9" class="st1" width="58.3" height="44.2"/>
<text transform="matrix(1 0 0 1 237.695 390.9515)" class="st6 st9">脱</text>
<text transform="matrix(1 0 0 1 241.9293 390.9515)" class="st6 st9">硫区</text>
<rect x="341.1" y="310.3" class="st1" width="5.7" height="8.1"/>
<rect x="341.1" y="336.6" class="st1" width="5.7" height="8.1"/>
<rect x="340.6" y="319.6" class="st3" width="5.3" height="6.4"/>
<g>
	<text transform="matrix(1 0 0 1 338.3775 323.8063)" class="st6 st12">除尘间</text>
</g>
<g>
	<text transform="matrix(1 0 0 1 350.5014 317.9771)" class="st6 st12">#1转运站</text>
</g>
<text transform="matrix(1 0 0 1 351.7536 313.4644)" class="st6 st21">MCC</text>
<g>
	<text transform="matrix(1 0 0 1 352.3521 367.6717)" class="st6 st12">#2皮</text>
</g>
<g>
	<text transform="matrix(1 0 0 1 352.3521 370.5904)" class="st6 st12">带转运站</text>
</g>
<g>
	<text transform="matrix(1 0 0 1 352.3521 338.9481)" class="st6 st12">#1皮</text>
</g>
<g>
	<text transform="matrix(1 0 0 1 352.3521 341.9674)" class="st6 st12">带除</text>
</g>
<g>
	<text transform="matrix(1 0 0 1 352.3521 344.6315)" class="st6 st12">铁器</text>
</g>
<rect x="275.2" y="363.8" class="st3" width="7.4" height="9.8"/>
<rect x="283.4" y="363.8" class="st3" width="7.4" height="9.8"/>
<rect x="309.5" y="364.3" class="st3" width="7.4" height="9.8"/>
<rect x="316.8" y="364.3" class="st3" width="7.4" height="9.8"/>
<g>
	<text transform="matrix(1 0 0 1 318.6614 367.016)" class="st6 st12">输煤</text>
</g>
<g>
	<text transform="matrix(1 0 0 1 318.6614 370.5468)" class="st6 st12">380V</text>
</g>
<g>
	<text transform="matrix(1 0 0 1 318.6614 373.8154)" class="st6 st12">MCC</text>
</g>
<g>
	<text transform="matrix(1 0 0 1 310.905 366.6489)" class="st6 st12">输煤</text>
</g>
<g>
	<text transform="matrix(1 0 0 1 310.905 369.494)" class="st6 st12">综合</text>
</g>
<g>
	<text transform="matrix(1 0 0 1 310.905 372.9696)" class="st6 st12">楼</text>
</g>
<g>
	<text transform="matrix(1 0 0 1 310.905 375.8922)" class="st6 st12">MCC</text>
</g>
<g>
	<text transform="matrix(1 0 0 1 300.7798 367.1033)" class="st6 st12">输煤</text>
</g>
<g>
	<text transform="matrix(1 0 0 1 300.7798 371.7791)" class="st6 st12">集控</text>
</g>
<g>
	<text transform="matrix(1 0 0 1 300.7798 376.4566)" class="st6 st12">楼</text>
</g>
<g>
	<text transform="matrix(1 0 0 1 284.3882 366.3242)" class="st6 st12">#5皮</text>
</g>
<g>
	<text transform="matrix(1 0 0 1 284.3882 369.2429)" class="st6 st12">带除</text>
</g>
<g>
	<text transform="matrix(1 0 0 1 284.3882 372.4294)" class="st6 st12">铁器</text>
</g>
<g>
	<text transform="matrix(1 0 0 1 276.5426 367.1561)" class="st6 st12">男女</text>
</g>
<g>
	<text transform="matrix(1 0 0 1 276.5426 371.8328)" class="st6 st12">浴室</text>
</g>
<g>
	<text transform="matrix(1 0 0 1 258.7523 367.3315)" class="st6 st12">碎煤</text>
</g>
<g>
	<text transform="matrix(1 0 0 1 258.7523 372.0081)" class="st6 st12">机室</text>
</g>
<text transform="matrix(0.9674 0 0 1 236.0205 366.2229)" class="st6 st27">#6皮</text>
<text transform="matrix(0.9674 0 0 1 236.0205 369.6694)" class="st6 st27">带驱</text>
<text transform="matrix(0.9674 0 0 1 236.0205 373.1127)" class="st6 st27">动间</text>
<g class="st28">
	<text transform="matrix(1 0 0 1 328.5607 349.9645)" class="st6 st12">制样室</text>
</g>
<g class="st28">
	<text transform="matrix(1 0 0 1 290.1557 344.8659)" class="st6 st12">清水</text>
	<text transform="matrix(1 0 0 1 290.1557 347.9834)" class="st6 st12">池水</text>
	<text transform="matrix(1 0 0 1 290.1557 351.1004)" class="st6 st12">泵间</text>
</g>
<g class="st28">
	<text transform="matrix(1 0 0 1 277.8127 345.0964)" class="st6 st24">煤水池</text>
</g>
<g class="st28">
	<text transform="matrix(1 0 0 1 322.9125 319.1589)" class="st6 st12">蒸发</text>
	<text transform="matrix(1 0 0 1 322.9125 322.277)" class="st6 st12">结晶</text>
	<text transform="matrix(1 0 0 1 322.9125 325.394)" class="st6 st12">车间</text>
</g>
<g class="st28">
	<text transform="matrix(1 0 0 1 310.3421 347.9834)" class="st6 st24">泥斗间</text>
</g>
<rect x="325.7" y="342.5" class="st3" width="12.7" height="13.4"/>
<polygon class="st3" points="284.6,319.5 284.6,338.3 279,338.3 279,332.9 272.7,332.9 272.7,319.5 "/>
<rect x="272.7" y="342.5" class="st3" width="11" height="13.4"/>
<rect x="272.9" y="333.4" class="st3" width="5.9" height="5.5"/>
<rect x="319.3" y="311.9" class="st3" width="12.8" height="19"/>
<rect x="287.2" y="337.4" class="st3" width="33.2" height="18.5"/>
<circle class="st3" cx="291.4" cy="329.8" r="3.2"/>
<circle class="st3" cx="298.7" cy="329.8" r="3.2"/>
<circle class="st3" cx="306.3" cy="329.8" r="3.2"/>
<circle class="st3" cx="313.6" cy="330.1" r="3.2"/>
<circle class="st3" cx="291.4" cy="321.1" r="3.2"/>
<circle class="st3" cx="302" cy="321.1" r="3.2"/>
<circle class="st3" cx="313.3" cy="321.4" r="3.2"/>
<circle class="st3" cx="312.6" cy="313.1" r="3.2"/>
<line class="st3" x1="302.1" y1="346.7" x2="302.1" y2="355.9"/>
<line class="st3" x1="307.4" y1="346.7" x2="307.4" y2="355.9"/>
<g class="st28">
	<text transform="matrix(1 0 0 1 304.7145 347.9834)" class="st6 st24">泥斗间</text>
</g>
<text transform="matrix(1 0 0 1 288.6394 329.0955)" class="st6 st12">澄清</text>
<text transform="matrix(1 0 0 1 288.6394 332.2135)" class="st6 st12">储水</text>
<text transform="matrix(1 0 0 1 288.6394 335.3299)" class="st6 st12">箱</text>
<text transform="matrix(1 0 0 1 296.3255 329.0955)" class="st6 st12">澄清</text>
<text transform="matrix(1 0 0 1 296.3255 332.2135)" class="st6 st12">储水</text>
<text transform="matrix(1 0 0 1 296.3255 335.3299)" class="st6 st12">箱</text>
<text transform="matrix(1 0 0 1 303.7896 329.0954)" class="st6 st12">浓缩</text>
<text transform="matrix(1 0 0 1 303.7896 332.2135)" class="st6 st12">澄清</text>
<text transform="matrix(1 0 0 1 303.7896 335.3299)" class="st6 st12">池</text>
<text transform="matrix(1 0 0 1 310.9172 329.0788)" class="st6 st12">DTRO</text>
<text transform="matrix(1 0 0 1 310.9172 332.3834)" class="st6 st12">产水</text>
<text transform="matrix(1 0 0 1 310.9172 335.5007)" class="st6 st12">箱</text>
<line class="st3" x1="297.3" y1="337.4" x2="297.3" y2="355.9"/>
<line class="st3" x1="312.6" y1="346.7" x2="312.6" y2="355.9"/>
<g class="st28">
	<text transform="matrix(1 0 0 1 301.9643 341.9654)" class="st6 st12">脱硫废水车间</text>
</g>
<g class="st28">
	<text transform="matrix(1 0 0 1 276.5426 324.5406)" class="st6 st12">生活</text>
	<text transform="matrix(1 0 0 1 276.5426 327.6587)" class="st6 st12">污水</text>
	<text transform="matrix(1 0 0 1 276.5426 330.7761)" class="st6 st12">池</text>
</g>
<g class="st28">
	<text transform="matrix(1 0 0 1 272.1613 336.3717)" class="st6 st12">提升</text>
	<text transform="matrix(1 0 0 1 272.1613 339.4881)" class="st6 st12">泵间</text>
</g>
<text transform="matrix(1 0 0 1 310.4847 319.1589)" class="st6 st12">蒸馏</text>
<text transform="matrix(1 0 0 1 310.4847 322.277)" class="st6 st12">水储</text>
<text transform="matrix(1 0 0 1 310.4847 325.394)" class="st6 st12">罐</text>
<text transform="matrix(1 0 0 1 310.3421 308.8053)" class="st6 st12">压缩</text>
<text transform="matrix(1 0 0 1 310.3421 311.9217)" class="st6 st12">空气</text>
<text transform="matrix(1 0 0 1 310.3421 315.0398)" class="st6 st12">储罐</text>
<text transform="matrix(1 0 0 1 299.4723 320.6891)" class="st6 st12">调结</text>
<text transform="matrix(1 0 0 1 299.4723 323.8063)" class="st6 st12">水池</text>
<text transform="matrix(1 0 0 1 288.6394 320.6891)" class="st6 st12">调结</text>
<text transform="matrix(1 0 0 1 288.6394 323.8063)" class="st6 st12">水池</text>
<line class="st19" x1="126.8" y1="361.1" x2="126.8" y2="310.3"/>
<polyline class="st13" points="520,275.6 341.1,275.6 339.2,275.6 339.2,308.6 44.4,308.6 44.4,348.4 "/>
<line class="st3" x1="297.3" y1="346.7" x2="320.4" y2="346.7"/>
<g>
	<text transform="matrix(1 0 0 1 312.6245 350.8817)" class="st6 st12">石灰纯</text>
	<text transform="matrix(1 0 0 1 312.6245 353.9997)" class="st6 st12">碱筒仓</text>
</g>
<g class="st28">
	<text transform="matrix(1 0 0 1 298.5297 349.5671)" class="st6 st12">酸</text>
	<text transform="matrix(1 0 0 1 298.5297 352.6849)" class="st6 st12">碱</text>
	<text transform="matrix(1 0 0 1 298.5297 355.8016)" class="st6 st12">仓</text>
	<text transform="matrix(1 0 0 1 298.5297 358.9194)" class="st6 st12">库</text>
</g>
<text transform="matrix(1 0 0 1 147.81 490.4481)" class="st6 st29">化学车间</text>
<text transform="matrix(1 0 0 1 143.5502 479.4295)" class="st6 st30">烧碱储存罐</text>
<text transform="matrix(1 0 0 1 137.5649 496.5179)" class="st6 st29">空气储存罐</text>
<text transform="matrix(1 0 0 1 130.0483 493.0612)" class="st6 st29">#2除盐水箱</text>
<text transform="matrix(1 0 0 1 130.1403 501.8337)" class="st6 st29">#1除盐水箱</text>
<text transform="matrix(1 0 0 1 131.5259 518.9702)" class="st6 st29">浓水箱</text>
<text transform="matrix(1 0 0 1 129.4898 479.4295)" class="st6 st30">盐酸储存罐</text>
<text transform="matrix(1 0 0 1 140.8244 459.0893)" class="st6 st29">#1</text>
<text transform="matrix(1 0 0 1 142.22 460.5829)" class="st6 st30">，</text>
<text transform="matrix(1 0 0 1 140.8244 462.0443)" class="st6 st29">#2</text>
<text transform="matrix(1 0 0 1 142.22 463.5381)" class="st6 st30">爆气塔</text>
<text transform="matrix(0 1 -1 0 138.6785 476.0682)" class="st6 st30">工业废水</text>
<text transform="matrix(0 1 -1 0 138.6785 474.2947)" class="st6 st30">输送泵房</text>
<text transform="matrix(1 0 0 1 147.7169 520.3661)" class="st6 st30">化学水泵间</text>
<text transform="matrix(0 1 -1 0 137.8887 460.5376)" class="st6 st29">#1</text>
<text transform="matrix(0 1 -1 0 140.9846 498.476)" class="st6 st29">#1</text>
<text transform="matrix(0 1 -1 0 137.1234 482.3504)" class="st6 st29">#1</text>
<text transform="matrix(0 1 -1 0 132.5151 460.8794)" class="st6 st29">#2</text>
<text transform="matrix(0 1 -1 0 140.9846 492.5292)" class="st6 st29">#2</text>
<text transform="matrix(0 1 -1 0 140.2814 482.3504)" class="st6 st29">#2</text>
<text transform="matrix(0 1 -1 0 131.3093 482.3504)" class="st6 st29">#1</text>
<text transform="matrix(0 1 -1 0 134.4671 482.3504)" class="st6 st29">#2</text>
<path class="st13" d="M133.8,497.9c1.8,0,3.2,1.4,3.2,3.2c0,1.8-1.4,3.2-3.2,3.2c-1.8,0-3.2-1.4-3.2-3.2
	C130.6,499.3,132.1,497.9,133.8,497.9z"/>
<path class="st13" d="M133.8,515.3c1.8,0,3.2,1.4,3.2,3.2c0,1.8-1.4,3.2-3.2,3.2c-1.8,0-3.2-1.4-3.2-3.2
	C130.6,516.7,132.1,515.3,133.8,515.3z"/>
<path class="st13" d="M133.8,523c1.8,0,3.2,1.4,3.2,3.2c0,1.8-1.4,3.2-3.2,3.2c-1.8,0-3.2-1.4-3.2-3.2
	C130.6,524.4,132.1,523,133.8,523z"/>
<path class="st13" d="M133.8,464.9c1.9,0,3.4,1.5,3.4,3.4c0,1.9-1.5,3.4-3.4,3.4c-1.9,0-3.4-1.5-3.4-3.4
	C130.4,466.4,131.9,464.9,133.8,464.9z"/>
<circle class="st13" cx="133.8" cy="492.1" r="3.2"/>
<path class="st13" d="M141.4,497.6c0.8,0,1.5,0.6,1.5,1.5c0,0.8-0.6,1.5-1.5,1.5c-0.8,0-1.5-0.6-1.5-1.5
	C139.9,498.3,140.6,497.6,141.4,497.6z"/>
<circle class="st13" cx="141.4" cy="493" r="1.5"/>
<path class="st13" d="M132.6,459.1c1.4,0,2.5,1.1,2.5,2.5c0,1.4-1.1,2.5-2.5,2.5c-1.4,0-2.5-1.1-2.5-2.5
	C130.1,460.2,131.2,459.1,132.6,459.1z"/>
<path class="st13" d="M138.4,459.1c1.4,0,2.5,1.1,2.5,2.5c0,1.4-1.1,2.5-2.5,2.5c-1.4,0-2.5-1.1-2.5-2.5
	C136,460.2,137.1,459.1,138.4,459.1z"/>
<rect x="131.2" y="472.3" class="st13" width="10.7" height="6.1"/>
<rect x="138.7" y="507.6" class="st13" width="3.1" height="6.1"/>
<rect x="142" y="507.6" class="st13" width="3.1" height="6.1"/>
<rect x="135.4" y="507.6" class="st13" width="3.1" height="6.1"/>
<rect x="132.4" y="507.6" class="st13" width="3.1" height="6.1"/>
<rect x="129.1" y="507.6" class="st13" width="3.1" height="6.1"/>
<rect x="145.4" y="465.1" class="st13" width="11.3" height="49.3"/>
<rect x="139.7" y="519.1" class="st13" width="16" height="9.2"/>
<text transform="matrix(1 0 0 1 131.6184 468.7934)" class="st6 st29">清水池</text>
<path class="st13" d="M140,486.7c-0.3,0-0.5-0.3-0.5-0.6V480c0-0.3,0.2-0.6,0.5-0.6h1.4c0.3,0,0.5,0.3,0.5,0.6v6.2
	c0,0.3-0.2,0.6-0.5,0.6H140z"/>
<path class="st13" d="M136.9,486.7c-0.3,0-0.5-0.3-0.5-0.6V480c0-0.3,0.2-0.6,0.5-0.6h1.4c0.3,0,0.5,0.3,0.5,0.6v6.2
	c0,0.3-0.2,0.6-0.5,0.6H136.9z"/>
<path class="st13" d="M134.1,486.7c-0.3,0-0.5-0.3-0.5-0.6V480c0-0.3,0.2-0.6,0.5-0.6h1.4c0.3,0,0.5,0.3,0.5,0.6v6.2
	c0,0.3-0.2,0.6-0.5,0.6H134.1z"/>
<path class="st13" d="M131,486.7c-0.3,0-0.5-0.3-0.5-0.6V480c0-0.3,0.2-0.6,0.5-0.6h1.4c0.3,0,0.5,0.3,0.5,0.6v6.2
	c0,0.3-0.2,0.6-0.5,0.6H131z"/>
<text transform="matrix(1 0 0 1 130.6147 506.75)" class="st6 st30">纯水设备间</text>
<text transform="matrix(1 0 0 1 132.5521 507.615)" class="st6 st29">#2</text>
<text transform="matrix(1 0 0 1 133.9477 509.1089)" class="st6 st30">生水箱</text>
<text transform="matrix(1 0 0 1 135.9018 507.615)" class="st6 st29">#1</text>
<text transform="matrix(1 0 0 1 137.2965 509.1089)" class="st6 st30">生水箱</text>
<text transform="matrix(1 0 0 1 138.8854 507.081)" class="st6 st29">#2</text>
<text transform="matrix(1 0 0 1 140.2819 508.575)" class="st6 st30">超滤水箱</text>
<text transform="matrix(1 0 0 1 142.1545 507.081)" class="st6 st29">#1</text>
<text transform="matrix(1 0 0 1 143.5502 508.575)" class="st6 st30">超滤水箱</text>
<text transform="matrix(1 0 0 1 130.4182 526.6376)" class="st6 st29">超滤产水箱</text>
<g>
	<text transform="matrix(1 0 0 1 244.8531 369.0221)" class="st6 st12">#3转运站</text>
</g>
<g>
	<text transform="matrix(1 0 0 1 165.549 370.0427)" class="st6 st12">#6皮带尾部</text>
</g>
<script>
	<![CDATA[

        var svgDoc = null;
        var svgRoot = null;
        var trueCoords = null; //记录元素在视口中的实际坐标  
        var grabCoords = null; //表示视图经过缩放或移动后的点在视口中的坐标  
        var backDrop = null;
        var GrabPoint = null;
        var DragTarget = null;
        var parentWnd = null; //保存html的window对象
        var selMode = null; //选择信标的模式
        var clientHeight = null; //画布的高
        var clientWidth = null; //画面的宽
        function init(evt) {
            svgDoc = evt.target.ownerDocument;
            svgRoot = evt.target;           
            parentWnd = window.parent;
			clientHeight =parseInt(parentWnd.document.getElementById("txtHeight").value.replace('px', ''));
            clientWidth =parseInt(parentWnd.document.getElementById("txtWidth").value.replace('px', ''));
            selMode = parentWnd.document.getElementById("txtMode") == null ? "" : parentWnd.document.getElementById("txtMode").value;
            //两个不显示的点  
            trueCoords = svgRoot.createSVGPoint();
            GrabPoint = svgRoot.createSVGPoint();
            //定义了画布，作为拖动时间的透明背景层使用，接收所有的触发事件  
            //这样做主要是为了避免因为拖动鼠标速度太快，而离开了被拖拽的元素，导致鼠标的onmousemove事件无法产生  
            //有了这个层，无论被拖拽的元素是否跟得上鼠标的脚步，在这个层都能产生鼠标onmousemove事件  
            backDrop = svgDoc.getElementById("BackDrop");
        }

        //获得当前元素在视口中的坐标位置的函数  
        function GetTrueCoords(evt) {
            var newScale = svgRoot.currentScale; //currentScale获得当前视图的伸缩比例  
            var translation = svgRoot.currentTranslate; //currentTranslate获得当前视图的平移量  
            trueCoords.x = (evt.clientX - translation.x) / newScale;
            trueCoords.y = (evt.clientY - translation.y) / newScale;
        }
        
       function showArea(evt) {

            if (evt.button != 0) // 只能左键操作
            {
                return;
            }

            var targetElement = evt.target; //取得要拖动的DOM Object  
           
            if (targetElement.parentNode == null
          || targetElement.parentNode.parentNode == null
          || "UserPositioning" != targetElement.parentNode.parentNode.id) {//判断图形是否是人员定位的区域                 
                return;
            }
            parentWnd.clickObj(targetElement.parentNode.getAttribute("value"));
          
        }

        //鼠标按下触发的事件  
        function Grab(evt) {

            if (evt.button != 0) // 只能左键操作
            {
                return;
            }

            var targetElement = evt.target; //取得要拖动的DOM Object  
            GetTrueCoords(evt);
            if (targetElement.parentNode == null
          || targetElement.parentNode.parentNode == null
          || "BeaconArea" != targetElement.parentNode.parentNode.id) {//判断图形是否是信标管理的区域  
                DragTarget = null; //后续的拖动事件取消掉  
                return;
            }
            if (backDrop != targetElement) {//不是在拖动背景  
                DragTarget = targetElement;
            }

            if (DragTarget != null && selMode == "") {
                DragTarget.parentNode.appendChild(DragTarget); //把要拖动的元素加入到它的父节点中，类似于在绘图软件中常见的”至于最上方“的操作  

                DragTarget.setAttributeNS(null, "pointer-events", "none"); //取消要拖动元素的鼠标接收事件  
                //这样可以保证当鼠标释放时所触发的事件的”主人“不是要拖动的元素本身，而是它所覆盖的元素，画布或其他元素  

                var Matrix = DragTarget.getCTM(); //获取当前SVG的坐标转换矩阵   
                GrabPoint.x = trueCoords.x - Number(Matrix.e); //定义元素移动后在视图中的坐标  
                GrabPoint.y = trueCoords.y - Number(Matrix.f);
            }

            selectBeacon(targetElement);    // 对选中的信标元素做业务逻辑处理
        }

        //拖动鼠标触发的事件  
        function Drag(evt) {
            if (selMode != "") return;
            GetTrueCoords(evt); //获取当前元素在视口的实际坐标  



            if (DragTarget) { //判断被拖动元素是否存在
                var id = DragTarget.getAttribute("id");
                var text = DragTarget.ownerDocument.getElementById("text_" + id.split('_')[1]);
                if (trueCoords.x < 0 || trueCoords.y < 0 || trueCoords.x > clientWidth || trueCoords.y > clientHeight) {
                    DragTarget.setAttributeNS(null, "transform", "translate(0,0)");
                    if (text != null) text.setAttributeNS(null, "transform", "translate(0,0)");
                }
                else {
                    var newX = trueCoords.x - GrabPoint.x;
                    var newY = trueCoords.y - GrabPoint.y;
                    DragTarget.setAttributeNS(null, "transform", "translate(" + newX + "," + newY + ")"); //设置元素的平移变化参数 实际效果就是被拖动的元素随着鼠标不断移动     
                    DragTarget.setAttributeNS(null, "transform", "translate(" + newX + "," + newY + ")");
                    if (text != null) text.setAttributeNS(null, "transform", "translate(" + (newX) + "," + (newY) + ")");
                }
            }
        }

        //鼠标释放触发的事件
        function Drop(evt) {//evt不是要拖动的元素本身，而是它所覆盖的元素，画布或其他元素  
            if (selMode != "") return;
            if (DragTarget) {
                var targetElement = evt.target;
                DragTarget.setAttributeNS(null, "pointer-events", "all"); //恢复要拖动元素的鼠标接收事件  
                //if ("Box" == targetElement.parentNode.id) {  
                //    targetElement.parentNode.appendChild(DragTarget);  
                //} else {  
                //    alert(DragTarget.id + " 已经位于" + targetElement.id + "之上");  
                //}  

                var newX = trueCoords.x - GrabPoint.x;
                var newY = trueCoords.y - GrabPoint.y;
                if (((newX < 0 || newX > 20) || (newY < 0 && newY > 20)) && trueCoords.x > 0 && trueCoords.y > 0 && trueCoords.x < clientWidth && trueCoords.y < clientHeight) {
                    var id = DragTarget.getAttribute("id");
                    var x = DragTarget.getAttribute("x");
                    var y = DragTarget.getAttribute("y");
                    //alert(id+"；" + x + ">" +(Number(x)+newX)+"；"+ y + ">" + (Number(y)+newY));
                    id = id.split("_")[1];

                    x = Number(x) + newX;
                    y = Number(y) + newY;
                    var result = SaveBeaconPosition(id, x, y);
                    if (result == "ok") // 位置修改成功，则更改信标的x、y
                    {
                        DragTarget.setAttribute("x", x)
                        DragTarget.setAttribute("y", y)
                    }
                    else {
                        alert("移动失败：" + result);
                    }
                    DragTarget.setAttributeNS(null, "transform", "translate(0, 0)");


                    var text = DragTarget.ownerDocument.getElementById("text_" + id);

                    if (text != null) {
                        text.setAttribute("x", parseFloat(x) - 8);
                        text.setAttribute("y", parseFloat(y) + 30);
                        text.setAttributeNS(null, "transform", "translate(0,0)");
                    }

                }

                DragTarget = null;
            }
        }

        function SaveBeaconPosition(id, x, y) {
            if (window.XMLHttpRequest) {
                var oAjax = new XMLHttpRequest();
            }
            else {
                var oAjax = new ActiveXObject("Microsoft.XMLHTTP");
            }
            var url = "../AreaSet/AreaBeaconSet_Ajax.ashx?pType=SetBeaconPositionInfoByMac&mac=" + id + "&x=" + x + "&y=" + y;
            oAjax.open("GET", url, false);
            oAjax.send();

            if (oAjax.readyState == 4) {
                if (oAjax.status == 200) {
                    return oAjax.responseText;
                }
            }

        }

        function selectBeacon(thisObj) {
            //var thisObj = evt.target;
            if (thisObj == null || thisObj == undefined)
                return;
            if (selMode == "single" || selMode == "") {
                if (parentWnd.MacList != null && parentWnd.MacList != undefined && parentWnd.MacList.length > 0) {
                    for (var i = 0; i < parentWnd.MacList.length; i++) {
                        thisObj.ownerDocument.getElementById("Beacon_" + parentWnd.MacList[i]).setAttribute("href", "bluetooth.png");
                    }
                }
                thisObj.setAttribute("href", "bluetooth_sel.png");
                thisObj.ownerDocument.getElementById("txtSelectedIds").setAttribute("value", thisObj.getAttribute("id"));
            } else if (selMode == "Multi") {
                var ids = thisObj.ownerDocument.getElementById("txtSelectedIds").getAttribute("value");
                if (ids.indexOf(thisObj.getAttribute("id")) < 0) {
                    ids += thisObj.getAttribute("id") + '|';
                    thisObj.setAttribute("href", "bluetooth_sel.png");
                }
                else {
                    ids = ids.replace(thisObj.getAttribute("id"), '');
                    thisObj.setAttribute("href", "bluetooth.png");
                }

                thisObj.ownerDocument.getElementById("txtSelectedIds").setAttribute("value", ids);
            }

            thisObj.ownerDocument.getElementById("txtSelectedId").setAttribute("value", thisObj.getAttribute("id"));
        }

		]]>
</script>
</svg>
